# xmcd
#
# Track frame offsets: 
#        150
#        12331
#        30528
#        48397
#        67813
#        93042
#        107496
#        123653
#        144633
#        159729
#        174882
#        195196
#        238513
#
# Disc length: 3828 seconds
#
# Revision: 2
# Processed by: cddbd v1.5.2PL0 Copyright (c) Steve Scherf et al.
# Submitted via: ExactAudioCopyFreeDBPlugin 1.0
#
DISCID=9a0ef20d
DTITLE=Kramer, Chris - 2010 - Chicago Blues deutsch
DYEAR=2010
DGENRE=Blues
TTITLE0=Harp Boogie
TTITLE1=Jedesmal
TTITLE2=Ich bat um einen Kuss zum Abschied
TTITLE3=Es gibt gut, besser und es gibt mich
TTITLE4=Die Frau von meinem Vermieter ist krank
TTITLE5=Darf ich bitten
TTITLE6=Froschkönig Blues
TTITLE7=Was geschehen ist, ist geschehen
TTITLE8=Ich beiss mich da jetzt durch
TTITLE9=Ich sitz hier und warte
TTITLE10=Ich wach heut morgen auf
TTITLE11=Viel zu lang gewartet
TTITLE12=Daten-CD
EXTD=
EXTT0=
EXTT1=
EXTT2=
EXTT3=
EXTT4=
EXTT5=
EXTT6=
EXTT7=
EXTT8=
EXTT9=
EXTT10=
EXTT11=
EXTT12=
PLAYORDER=
